<?xml version="1.0" standalone="no"?>
<!DOCTYPE svg PUBLIC "-//W3C//DTD SVG 20010904//EN"
 "http://www.w3.org/TR/2001/REC-SVG-20010904/DTD/svg10.dtd">
<svg version="1.0" xmlns="http://www.w3.org/2000/svg"
 width="500.000000pt" height="500.000000pt" viewBox="0 0 500.000000 500.000000"
 preserveAspectRatio="xMidYMid meet">
<metadata>
Created by potrace 1.11, written by Peter Selinger 2001-2013
</metadata>
<g transform="translate(0.000000,500.000000) scale(0.100000,-0.100000)"
fill="#000000" stroke="none">
<path d="M2440 4402 c0 -4 -10 -8 -22 -9 -73 -1 -125 -8 -135 -16 -9 -6 -13
-6 -13 2 0 9 -5 9 -21 0 -12 -6 -30 -9 -40 -6 -10 3 -21 1 -24 -3 -3 -5 -16
-7 -30 -5 -14 1 -25 -2 -25 -8 0 -5 -9 -7 -20 -4 -11 3 -20 0 -20 -6 0 -6 -3
-8 -6 -5 -3 3 -21 2 -41 -4 -57 -16 -77 -20 -95 -21 -10 -1 -18 -4 -18 -7 0
-4 -7 -7 -15 -8 -8 -1 -22 -3 -30 -4 -8 -1 -15 -5 -15 -10 0 -5 -6 -8 -12 -7
-7 1 -33 -6 -58 -17 -25 -10 -48 -18 -52 -16 -5 1 -8 -3 -8 -9 0 -5 -4 -8 -10
-4 -5 3 -18 -3 -29 -14 -11 -11 -22 -17 -25 -14 -3 3 -12 0 -21 -7 -8 -7 -15
-9 -15 -6 0 4 -7 0 -16 -8 -8 -9 -21 -16 -28 -16 -8 0 -19 -7 -26 -15 -7 -8
-21 -15 -31 -15 -11 0 -19 -4 -19 -10 0 -5 -3 -9 -7 -8 -14 3 -63 -25 -58 -33
3 -4 -8 -10 -25 -14 -17 -4 -30 -13 -30 -21 0 -9 -5 -12 -10 -9 -6 3 -17 -1
-26 -9 -9 -9 -20 -13 -26 -10 -7 4 -8 2 -4 -4 4 -7 3 -12 -1 -12 -5 0 -22 -12
-38 -27 -16 -16 -31 -27 -32 -25 -2 1 -2 0 0 -3 3 -7 -37 -34 -44 -29 -4 2
-10 -3 -13 -12 -3 -8 -10 -12 -16 -9 -6 3 -7 -1 -4 -9 3 -9 2 -16 -4 -16 -6 0
-23 -13 -39 -30 -15 -16 -34 -30 -40 -30 -7 0 -13 -5 -13 -11 0 -6 -22 -34
-50 -61 -27 -28 -47 -55 -44 -59 3 -5 -6 -11 -20 -15 -14 -3 -25 -9 -24 -13 2
-21 -3 -41 -11 -37 -9 6 -26 -22 -23 -36 1 -5 -1 -7 -6 -5 -4 1 -8 -2 -9 -6
-1 -5 -11 -17 -23 -27 -12 -10 -21 -21 -21 -24 3 -21 0 -26 -11 -20 -7 4 -8 3
-4 -4 4 -6 -2 -19 -13 -29 -11 -9 -18 -20 -16 -24 3 -4 -2 -12 -10 -19 -8 -7
-15 -18 -15 -26 0 -7 -8 -18 -17 -23 -10 -6 -14 -11 -10 -11 5 0 -1 -13 -12
-29 -12 -16 -21 -36 -21 -45 0 -9 -5 -16 -12 -16 -6 0 -9 -3 -5 -6 3 -4 -1
-13 -9 -21 -8 -8 -12 -19 -9 -24 4 -5 1 -9 -5 -9 -6 0 -8 -4 -5 -10 3 -5 1
-10 -5 -10 -6 0 -9 -4 -5 -9 3 -5 -2 -16 -10 -24 -11 -12 -12 -17 -2 -20 7 -3
4 -6 -6 -6 -10 -1 -15 -6 -12 -11 4 -6 1 -18 -7 -27 -7 -9 -12 -19 -11 -22 4
-13 -10 -51 -19 -51 -5 0 -7 -4 -4 -9 5 -8 -9 -60 -25 -93 -6 -13 -5 -18 3
-18 10 0 10 -2 1 -8 -6 -4 -14 -21 -17 -37 -2 -17 -5 -31 -6 -32 -2 -2 -3 -7
-4 -12 0 -5 -4 -12 -8 -16 -4 -4 -4 -13 -2 -20 3 -7 0 -23 -6 -35 -10 -18 -10
-21 2 -14 10 6 11 5 1 -8 -7 -8 -10 -18 -6 -21 3 -4 2 -7 -3 -7 -5 0 -9 -18
-8 -40 0 -22 -4 -40 -10 -40 -6 0 -6 -4 2 -12 8 -8 8 -17 1 -30 -6 -11 -8 -26
-5 -34 3 -8 2 -14 -2 -14 -4 0 -7 -23 -7 -50 0 -28 4 -50 8 -50 5 0 5 -6 0
-12 -8 -14 -7 -104 2 -119 4 -5 0 -9 -7 -9 -9 0 -9 -3 2 -10 8 -5 11 -10 7
-10 -4 0 -3 -8 2 -19 6 -10 7 -21 4 -25 -11 -11 -12 -36 -1 -36 5 0 8 -8 6
-17 -1 -10 1 -24 5 -30 5 -8 3 -13 -4 -13 -9 0 -9 -3 0 -14 6 -7 9 -21 5 -30
-3 -9 -2 -16 3 -16 5 0 10 -12 11 -27 2 -27 8 -63 12 -73 1 -3 2 -8 1 -12 0
-5 5 -8 11 -8 9 0 8 -4 -2 -10 -9 -6 -10 -10 -3 -10 6 0 10 -9 8 -20 -2 -11 1
-20 6 -20 6 0 7 -5 4 -10 -3 -6 -1 -10 4 -10 6 0 11 -5 11 -11 0 -5 -6 -7 -12
-3 -10 6 -10 5 -1 -8 7 -8 10 -18 6 -21 -3 -4 0 -7 7 -7 7 0 10 -3 7 -7 -4 -3
0 -17 9 -31 9 -13 11 -21 5 -18 -16 10 -13 -3 4 -21 8 -8 13 -19 10 -24 -4 -5
-1 -9 5 -9 6 0 8 -4 5 -10 -3 -5 -1 -10 5 -10 6 0 10 -6 9 -12 -3 -26 1 -39
11 -33 5 3 7 0 4 -8 -3 -8 -1 -18 5 -22 6 -3 11 -15 11 -26 0 -10 5 -19 11
-19 5 0 8 -4 4 -9 -3 -5 1 -16 9 -24 8 -8 12 -17 9 -21 -4 -3 0 -6 7 -6 7 0
11 -3 7 -6 -3 -3 3 -15 14 -27 10 -11 19 -29 19 -39 0 -10 5 -18 10 -18 6 0
10 -7 10 -15 0 -8 5 -15 11 -15 5 0 7 -4 4 -10 -3 -5 -2 -10 2 -10 5 0 22 -22
38 -50 16 -27 33 -50 38 -50 4 0 5 -4 2 -10 -3 -5 -2 -10 3 -10 5 0 15 -11 22
-25 7 -13 18 -22 23 -18 6 3 7 1 3 -5 -4 -7 7 -25 24 -42 17 -17 28 -35 24
-42 -4 -6 -3 -8 3 -5 11 7 70 -61 65 -76 -1 -5 1 -6 6 -3 11 6 78 -65 74 -77
-1 -5 1 -6 6 -3 5 3 21 -8 36 -25 15 -16 31 -27 36 -24 10 6 15 -9 10 -30 -1
-5 2 -7 5 -3 8 8 72 -37 93 -64 7 -10 19 -18 26 -18 7 0 21 -9 31 -20 10 -11
26 -20 37 -20 10 0 18 -7 18 -17 0 -9 3 -13 6 -10 4 4 20 -3 35 -14 16 -11 29
-18 29 -15 0 3 9 -3 20 -14 12 -12 25 -18 30 -15 6 4 10 3 10 -2 0 -9 91 -49
103 -45 5 1 6 -2 2 -7 -3 -6 4 -15 16 -21 17 -10 20 -9 13 2 -6 10 -5 11 8 1
8 -7 18 -10 21 -6 4 3 7 1 7 -5 0 -7 9 -12 20 -12 11 0 20 -5 20 -11 0 -5 4
-8 9 -4 5 3 17 -2 25 -11 12 -11 16 -12 16 -2 0 10 3 9 10 -2 5 -8 10 -11 10
-6 0 5 6 3 13 -3 8 -6 17 -8 20 -4 4 3 7 1 7 -6 0 -7 4 -10 9 -6 5 3 12 1 16
-4 3 -6 12 -8 20 -4 8 3 15 0 15 -7 0 -6 5 -8 10 -5 6 4 17 1 25 -5 11 -10 15
-10 15 -1 0 7 5 9 10 6 6 -4 7 -12 3 -18 -4 -7 0 -6 10 2 9 7 17 9 17 4 0 -5
11 -10 26 -11 14 -1 33 -6 44 -12 13 -7 20 -6 23 3 4 9 6 9 6 0 1 -7 11 -13
24 -13 13 0 28 -5 35 -12 9 -9 12 -9 12 1 0 11 3 11 15 1 8 -7 15 -9 15 -5 0
4 7 2 15 -5 12 -10 15 -10 15 1 0 11 2 11 10 -1 9 -13 11 -13 20 0 5 8 10 10
10 3 0 -6 9 -9 20 -6 11 3 20 0 20 -6 0 -7 8 -8 25 -1 16 6 25 6 25 -1 0 -6 7
-6 20 1 14 8 20 8 20 0 0 -7 8 -9 20 -5 11 3 20 3 20 -2 0 -11 92 -3 108 9 8
7 12 7 12 1 0 -11 33 -9 63 2 10 4 17 3 17 -4 0 -6 7 -8 15 -5 8 4 13 9 11 13
-2 3 18 5 44 5 56 -2 102 5 96 15 -3 4 11 6 30 6 19 -1 34 3 34 9 0 6 5 4 10
-4 6 -10 10 -11 10 -2 0 6 8 12 18 12 10 0 24 6 31 12 11 11 12 10 6 0 -6 -12
-3 -12 15 -2 12 6 28 9 36 6 8 -3 14 -1 14 5 0 6 7 9 15 5 8 -3 15 -2 15 3 0
11 39 24 63 21 9 -1 17 3 17 8 0 8 6 10 50 14 11 1 20 5 20 9 0 9 60 32 82 32
10 0 16 3 13 7 -3 6 54 40 78 46 4 1 10 3 15 4 4 1 10 2 15 1 4 0 7 2 7 7 0 4
20 18 44 32 25 13 42 29 39 34 -4 6 -3 8 2 4 4 -4 15 -2 23 5 13 10 14 9 7 -3
-5 -8 6 0 24 18 18 17 37 30 42 26 5 -3 9 0 9 5 0 6 7 11 15 11 8 0 15 5 15
10 0 6 7 10 16 10 8 0 12 4 9 10 -3 5 1 10 9 10 9 0 16 5 16 11 0 5 5 7 10 4
6 -3 10 1 10 9 0 9 4 15 9 13 5 -1 17 7 26 18 9 11 13 13 9 5 -4 -8 4 -4 18
10 42 40 62 55 71 52 5 -1 6 2 2 8 -3 5 -1 10 6 10 7 0 9 3 6 7 -4 3 8 17 25
30 18 12 28 23 22 24 -5 0 1 4 14 10 13 5 20 13 17 19 -3 5 -1 10 4 10 6 0 11
7 11 16 0 8 4 13 9 9 5 -3 12 4 16 14 3 11 15 23 26 26 12 4 18 12 15 21 -3 8
-1 14 4 14 6 0 10 8 10 18 0 14 2 15 10 2 8 -13 10 -12 10 3 0 9 5 17 12 17 6
0 9 3 5 6 -3 3 2 15 11 26 9 11 25 29 35 40 9 12 17 27 17 33 0 7 7 18 15 25
18 15 81 122 77 133 -1 4 3 7 9 7 5 0 7 5 4 10 -3 6 -1 10 5 10 6 0 8 5 5 10
-3 6 -3 10 2 10 4 0 26 38 47 85 22 47 43 85 47 85 4 0 5 9 2 20 -3 11 0 20 6
20 6 0 10 3 10 8 -1 4 0 10 1 15 4 12 7 26 9 38 0 5 5 8 9 5 7 -4 11 14 13 67
0 9 4 17 9 17 4 0 7 11 6 25 -2 13 1 22 5 19 5 -3 7 9 5 25 -2 18 1 28 6 25 5
-4 9 4 7 17 -1 13 1 32 5 41 4 9 8 22 10 30 1 7 5 19 9 26 5 7 3 12 -5 12 -10
0 -10 2 -1 8 7 4 13 29 15 55 2 26 6 47 9 47 3 0 6 7 6 15 0 8 -5 15 -10 15
-6 0 -6 5 0 13 5 6 9 21 9 32 -1 11 4 23 9 27 6 5 5 8 -3 8 -7 0 -10 5 -6 11
11 18 4 182 -8 196 -7 9 -7 13 1 13 7 0 9 5 6 10 -4 6 -9 43 -11 82 -3 40 -9
75 -15 79 -8 5 -8 9 0 13 6 4 9 12 5 17 -3 5 -8 22 -11 37 -8 41 -11 57 -13
57 -1 0 -3 11 -6 24 -2 14 -10 31 -17 40 -9 12 -9 13 1 7 17 -10 15 5 -4 32
-10 15 -11 22 -3 22 8 0 8 4 -1 15 -7 8 -9 15 -4 15 5 0 3 4 -4 8 -7 5 -14 22
-15 39 -1 17 -5 29 -9 26 -7 -4 -10 12 -7 33 0 4 -5 11 -13 15 -10 7 -10 9 2
9 10 0 7 5 -8 16 -12 8 -22 26 -22 38 0 13 -8 27 -17 30 -15 6 -15 8 -3 16 10
7 11 10 3 10 -7 0 -13 7 -13 15 0 8 -5 15 -10 15 -6 0 -9 3 -8 8 4 13 -13 52
-23 52 -5 0 -9 7 -9 16 0 8 -7 22 -15 31 -8 8 -13 19 -10 24 4 5 2 9 -4 9 -10
0 -27 38 -23 53 1 4 -5 7 -13 7 -8 0 -15 7 -15 15 0 8 -4 15 -10 15 -5 0 -10
7 -10 15 0 8 -5 15 -12 15 -6 0 -8 3 -5 7 4 3 -3 17 -15 30 -12 13 -18 23 -14
23 4 0 -5 11 -20 25 -15 14 -23 25 -19 25 4 0 -6 13 -23 29 -16 16 -28 32 -24
35 3 3 -1 6 -8 6 -7 0 -10 3 -7 7 4 3 -2 13 -13 20 -11 8 -18 19 -14 24 3 5 2
9 -3 8 -19 -3 -47 3 -35 8 10 4 8 9 -7 20 -12 8 -21 21 -21 29 0 8 -4 13 -9 9
-5 -3 -16 4 -24 15 -7 11 -17 17 -20 13 -4 -3 -7 1 -7 10 0 9 -4 17 -9 17 -4
0 -31 22 -60 49 -28 26 -51 43 -51 37 -1 -6 -6 -1 -13 12 -7 12 -16 19 -20 16
-4 -4 -7 -3 -7 2 0 5 -16 18 -35 28 -19 11 -35 23 -35 28 0 4 -7 8 -15 8 -8 0
-15 4 -15 10 0 5 -3 9 -7 9 -20 -3 -34 2 -28 11 3 6 -1 10 -9 10 -9 0 -16 4
-16 9 0 5 -11 12 -25 15 -14 4 -23 11 -20 16 3 6 -1 7 -9 4 -9 -4 -18 1 -22
10 -3 9 -10 14 -14 11 -5 -3 -15 1 -23 9 -8 8 -17 13 -19 10 -3 -2 -22 8 -44
22 -21 14 -49 27 -62 29 -13 1 -28 8 -32 15 -4 7 -13 9 -19 6 -6 -4 -11 -2
-11 4 0 6 -4 8 -10 5 -5 -3 -10 -1 -10 4 0 6 -8 11 -17 11 -9 0 -25 8 -36 18
-11 9 -17 11 -13 5 4 -7 2 -13 -3 -13 -6 0 -11 5 -11 11 0 5 -4 7 -10 4 -5 -3
-10 -2 -10 4 0 5 -9 8 -20 6 -11 -2 -20 0 -20 5 0 5 -7 6 -17 3 -9 -4 -14 -2
-11 3 4 5 -10 10 -30 11 -19 1 -38 6 -41 10 -3 4 -17 9 -31 10 -51 4 -70 8
-70 13 0 6 -42 11 -102 14 -16 0 -28 4 -28 7 0 3 -10 5 -22 4 -13 -1 -31 2
-40 6 -11 6 -18 5 -21 -4 -3 -6 -6 -7 -6 -2 -1 7 -16 9 -37 7 -21 -3 -34 -1
-31 5 3 5 -3 9 -14 9 -10 0 -19 -4 -19 -9 0 -4 -6 -5 -12 0 -18 11 -42 10 -50
-2 -5 -7 -10 -7 -15 0 -10 13 -33 18 -33 7z m-4 -116 c30 0 54 3 55 9 0 7 2 7
5 0 2 -6 46 -10 104 -9 55 0 100 -3 100 -7 0 -4 13 -4 29 1 16 4 32 5 36 2 6
-7 25 -10 73 -14 17 -1 32 -6 32 -11 0 -5 6 -4 14 2 11 10 16 9 24 -5 6 -11
12 -13 16 -5 5 7 14 6 32 -5 19 -13 24 -14 24 -3 0 10 3 10 8 3 7 -10 29 -18
95 -31 15 -3 27 -9 27 -14 0 -5 14 -9 30 -9 17 0 30 -4 30 -10 0 -5 11 -10 24
-10 14 0 28 -4 31 -10 3 -5 15 -10 26 -10 10 0 19 -5 19 -12 0 -6 3 -8 7 -5 3
4 20 -2 38 -13 18 -11 35 -17 38 -13 4 3 7 2 7 -4 0 -6 11 -14 25 -17 14 -4
25 -12 25 -19 0 -8 4 -7 10 3 8 13 10 12 10 -3 0 -10 4 -16 9 -12 5 3 16 -1
24 -9 8 -8 17 -12 21 -9 3 4 6 1 6 -6 0 -7 5 -9 10 -6 6 3 10 1 10 -4 0 -6 5
-11 11 -11 6 0 17 -7 26 -15 8 -8 19 -13 24 -10 5 4 9 -1 9 -9 0 -8 5 -18 12
-22 7 -5 9 -2 4 7 -4 8 2 3 13 -10 12 -13 21 -20 21 -16 0 4 7 2 15 -5 8 -7
12 -16 9 -21 -3 -5 -2 -9 3 -8 15 4 43 -13 37 -22 -3 -5 -2 -9 3 -8 21 4 33
-2 33 -16 0 -9 11 -20 25 -25 14 -5 25 -14 25 -20 0 -6 5 -8 12 -4 8 5 9 2 4
-12 -4 -10 -4 -15 0 -12 3 4 17 -5 30 -19 13 -14 24 -22 24 -18 0 5 6 0 14
-10 8 -11 12 -23 10 -27 -3 -4 2 -5 10 -2 9 3 16 2 16 -3 0 -6 11 -23 25 -39
14 -16 25 -35 25 -41 0 -7 6 -13 14 -13 7 0 26 -20 41 -45 16 -24 32 -42 37
-39 7 5 12 -10 9 -28 0 -5 3 -8 9 -8 5 0 10 -6 10 -14 0 -8 4 -16 9 -18 10 -3
37 -47 73 -118 13 -25 26 -47 31 -48 4 -2 5 -7 2 -12 -3 -4 2 -13 10 -20 8 -7
15 -20 15 -30 0 -10 7 -21 16 -24 8 -3 12 -11 9 -16 -4 -6 -1 -18 7 -27 11
-14 11 -16 -2 -8 -11 6 -10 3 3 -12 9 -11 14 -23 10 -26 -3 -4 -1 -7 6 -7 7 0
9 -4 6 -10 -3 -5 0 -10 7 -10 11 0 10 -2 0 -9 -11 -7 -10 -9 3 -15 9 -3 13
-10 10 -16 -3 -5 0 -10 7 -11 11 0 11 -2 0 -6 -10 -4 -9 -9 5 -20 10 -8 12
-12 6 -8 -15 7 -18 -11 -3 -20 6 -3 10 -17 10 -30 0 -13 5 -27 10 -30 6 -4 8
-11 5 -16 -4 -5 0 -9 7 -9 10 0 10 -2 -1 -9 -10 -6 -10 -10 -1 -16 6 -4 9 -13
6 -21 -3 -8 -2 -14 3 -14 4 0 7 -10 6 -22 -2 -13 4 -33 11 -45 8 -13 11 -23 6
-23 -13 0 -9 -43 6 -59 8 -8 10 -17 5 -20 -12 -9 -12 -41 0 -41 6 0 8 -3 4 -6
-3 -3 -2 -16 3 -28 4 -13 5 -28 0 -35 -4 -7 -4 -28 0 -47 4 -19 5 -32 1 -29
-11 6 -8 -69 3 -76 5 -4 5 -13 0 -20 -13 -21 -13 -39 -1 -39 8 0 8 -3 2 -8
-14 -10 -17 -32 -5 -32 7 0 7 -6 0 -20 -7 -13 -7 -20 -1 -20 7 0 7 -9 0 -27
-7 -19 -7 -29 0 -31 6 -2 9 -8 5 -13 -9 -15 -17 -61 -17 -96 1 -18 -3 -31 -6
-28 -4 2 -7 -11 -6 -30 0 -19 -3 -35 -8 -35 -5 0 -3 -8 4 -17 10 -11 10 -14 2
-9 -9 5 -13 1 -14 -11 -1 -27 -8 -66 -16 -83 -8 -20 -14 -41 -17 -64 -1 -11
-7 -21 -13 -23 -6 -2 -9 -13 -6 -23 3 -11 1 -20 -4 -20 -5 0 -10 -6 -11 -12
-3 -33 -10 -52 -20 -56 -6 -2 -9 -9 -6 -16 3 -8 -2 -21 -11 -30 -12 -12 -13
-16 -3 -16 11 0 11 -2 0 -9 -8 -4 -14 -12 -15 -17 -1 -5 -6 -8 -10 -6 -5 1 -6
-2 -3 -7 4 -5 -3 -26 -14 -46 -12 -21 -15 -34 -8 -30 7 4 3 -2 -8 -12 -12 -10
-20 -26 -19 -36 2 -9 -1 -15 -6 -12 -4 3 -15 -10 -23 -30 -8 -19 -20 -35 -26
-35 -6 0 -8 -4 -5 -10 7 -12 -19 -53 -28 -43 -4 3 -7 0 -7 -8 0 -9 -9 -25 -19
-36 -11 -12 -17 -24 -13 -29 4 -4 -1 -4 -10 -1 -12 4 -15 2 -11 -8 3 -8 -2
-18 -11 -21 -9 -3 -14 -10 -11 -14 3 -5 -4 -11 -15 -15 -11 -4 -18 -11 -15
-16 4 -5 1 -9 -5 -9 -6 0 -8 -5 -4 -12 5 -8 2 -9 -12 -4 -10 4 -15 4 -11 0 4
-4 -4 -17 -18 -29 -13 -13 -21 -25 -19 -28 3 -3 -4 -11 -16 -17 -12 -6 -20
-14 -17 -16 7 -7 -36 -51 -45 -47 -5 2 -8 -1 -8 -7 0 -6 -5 -8 -10 -5 -6 4 -9
1 -8 -5 2 -7 -6 -17 -17 -23 -10 -7 -28 -22 -38 -35 -11 -13 -21 -21 -24 -18
-2 2 -18 -10 -34 -26 -16 -17 -29 -28 -29 -24 0 4 -6 1 -14 -6 -8 -7 -11 -17
-8 -22 3 -5 0 -6 -6 -2 -6 3 -18 -1 -26 -10 -9 -8 -16 -12 -16 -8 0 4 -6 0
-13 -11 -9 -11 -19 -15 -27 -10 -8 5 -11 4 -7 -2 8 -13 -50 -46 -65 -37 -6 4
-8 3 -5 -3 8 -12 -67 -56 -77 -46 -3 4 -6 1 -6 -5 0 -7 -5 -12 -11 -12 -12 0
-81 -31 -89 -39 -6 -7 -29 -13 -47 -14 -7 0 -13 -4 -13 -9 0 -4 -3 -7 -7 -6
-5 1 -21 -4 -36 -10 -16 -7 -33 -10 -38 -6 -5 3 -9 0 -9 -6 0 -6 -4 -8 -10 -5
-5 3 -10 1 -10 -5 0 -6 -4 -9 -9 -6 -13 8 -42 -4 -36 -15 3 -4 -4 -6 -16 -4
-12 2 -30 0 -40 -6 -10 -5 -36 -11 -56 -13 -21 -3 -42 -5 -46 -5 -5 -1 -5 -5
-2 -11 4 -7 -3 -7 -19 0 -18 6 -26 6 -26 -1 0 -6 -9 -8 -21 -4 -13 4 -19 3
-16 -2 8 -13 -36 -11 -46 2 -4 6 -13 3 -21 -8 -9 -12 -16 -15 -21 -7 -5 8 -11
8 -21 -1 -11 -9 -14 -8 -15 2 0 11 -2 11 -6 1 -4 -10 -8 -10 -19 -1 -11 9 -14
9 -14 -1 0 -7 -7 -10 -15 -6 -8 3 -15 0 -15 -6 0 -7 -4 -7 -13 1 -10 8 -17 7
-25 -1 -7 -7 -12 -8 -12 -2 0 13 -43 12 -52 -1 -5 -6 -8 -6 -8 1 0 12 -29 12
-48 0 -6 -4 -12 -3 -12 3 0 10 -31 7 -50 -4 -6 -3 -10 -2 -10 2 0 9 -10 11
-102 15 -32 1 -58 5 -58 8 0 8 -32 6 -47 -3 -6 -4 -13 -3 -15 2 -1 5 -25 11
-52 14 -27 4 -54 11 -60 17 -13 13 -29 13 -20 -1 4 -8 0 -8 -15 0 -12 7 -27 9
-33 5 -7 -4 -8 -3 -4 4 7 12 -5 16 -31 13 -7 -1 -13 3 -13 9 0 6 -4 9 -9 5 -5
-3 -12 -1 -16 4 -3 6 -12 8 -19 5 -8 -3 -17 0 -21 5 -3 6 -11 9 -16 6 -5 -4
-9 -1 -9 5 0 6 -4 9 -9 5 -5 -3 -12 -1 -16 5 -3 5 -15 10 -26 10 -13 0 -18 4
-13 12 5 7 3 8 -5 4 -15 -10 -71 12 -71 28 0 6 -5 4 -10 -4 -7 -11 -10 -11
-10 -2 0 7 -4 10 -10 7 -5 -3 -10 -3 -10 2 0 4 -15 14 -32 21 -50 20 -63 29
-61 41 2 6 -4 8 -12 5 -8 -4 -15 -1 -15 5 0 6 -3 10 -7 9 -17 -4 -53 14 -53
27 0 9 -7 11 -22 7 -14 -3 -19 -1 -14 6 4 7 -9 19 -34 32 -22 11 -40 25 -40
30 0 6 -6 10 -14 10 -7 0 -21 11 -30 25 -10 15 -22 22 -31 19 -9 -4 -15 0 -15
9 0 9 -9 19 -20 22 -11 3 -20 11 -20 16 0 6 -5 7 -12 3 -6 -4 -8 -3 -5 3 3 5
-3 17 -14 26 -10 9 -19 15 -19 12 0 -2 -10 6 -23 18 -13 12 -21 28 -18 36 2 8
0 11 -6 8 -12 -7 -53 19 -53 34 0 6 -9 22 -20 36 -11 14 -20 23 -20 19 0 -4
-7 -1 -15 8 -8 8 -15 17 -15 21 0 4 -6 12 -12 20 -29 30 -48 56 -48 66 0 5 -5
7 -10 4 -9 -6 -14 8 -7 20 1 2 -8 12 -21 21 -13 9 -21 22 -18 30 3 8 0 13 -7
11 -7 -1 -13 10 -15 25 -2 17 -9 28 -19 28 -10 0 -13 6 -9 16 3 8 2 12 -4 9
-6 -3 -10 3 -10 14 0 12 -4 21 -9 21 -5 0 -17 20 -26 45 -10 24 -22 42 -27 39
-4 -3 -8 -2 -7 3 1 4 0 10 -1 13 -3 10 -11 45 -12 58 -1 6 -4 12 -8 12 -4 0
-13 19 -20 43 -8 23 -19 45 -25 49 -6 5 -4 8 5 8 12 1 12 3 -2 11 -9 5 -15 16
-12 23 3 8 0 17 -5 21 -6 3 -9 11 -5 16 3 6 -2 20 -13 31 -12 14 -13 18 -3 13
12 -7 13 -6 3 6 -7 9 -14 32 -15 52 -2 20 -7 37 -11 37 -5 0 -5 5 -2 10 4 6 1
17 -5 25 -10 12 -10 15 1 15 11 0 11 2 -1 10 -8 5 -11 12 -7 16 4 4 1 14 -6
22 -10 13 -9 14 3 7 13 -8 13 -6 1 8 -7 10 -11 30 -9 47 3 17 1 33 -3 36 -4 2
-6 18 -4 34 2 17 -1 30 -6 30 -6 0 -7 6 -3 12 11 18 12 48 2 48 -5 0 -6 5 -3
10 8 13 13 110 5 110 -7 0 -5 58 2 66 3 3 2 20 -2 39 -4 19 -5 36 -2 39 9 10
7 66 -2 66 -6 0 -5 5 2 12 7 7 12 34 12 60 0 26 3 48 8 48 4 0 8 15 10 33 4
47 7 66 14 73 4 3 4 13 1 22 -4 10 -2 13 5 8 8 -5 10 -2 6 8 -3 9 -3 24 1 34
5 9 10 28 12 42 2 13 10 31 16 39 10 12 9 13 -3 7 -8 -4 -6 0 4 8 11 9 16 16
12 16 -5 0 -3 7 4 15 10 12 10 15 -1 15 -10 0 -10 3 -3 8 6 4 14 17 18 30 4
12 12 22 17 22 6 0 8 4 4 9 -6 11 15 62 30 73 6 5 4 8 -5 8 -9 0 -7 5 8 16 18
12 20 19 12 29 -9 11 -7 17 9 27 12 7 21 20 21 29 0 9 10 24 22 33 13 9 18 14
11 11 -8 -3 -6 5 3 25 9 16 20 30 25 30 6 0 8 4 5 9 -3 5 1 12 10 15 8 3 12
10 9 16 -3 6 1 13 9 16 9 3 16 13 16 21 0 8 4 11 10 8 5 -3 7 0 4 8 -3 8 2 17
10 20 9 4 16 14 16 22 0 9 4 14 8 11 4 -3 16 11 27 30 10 19 24 34 32 34 8 0
11 5 8 10 -3 6 -1 10 5 10 6 0 8 5 5 10 -3 6 1 10 10 10 9 0 13 5 10 10 -6 9
8 14 28 11 5 -1 6 3 2 8 -3 6 4 15 16 21 11 7 18 14 15 17 -7 7 35 39 46 35 5
-1 7 1 7 6 -3 19 2 33 10 28 5 -3 15 2 22 11 12 14 12 16 0 8 -10 -5 -12 -4
-7 3 4 7 12 12 17 12 11 0 19 7 78 63 19 17 28 23 21 12 -8 -11 1 -5 19 13 18
17 37 32 42 32 4 0 19 11 33 25 14 14 29 26 33 26 15 2 48 18 38 18 -13 1 107
64 123 64 6 0 12 4 12 8 0 4 16 13 35 20 19 7 35 17 35 23 0 5 3 7 6 3 3 -3
30 5 60 18 30 13 54 21 54 17 0 -4 4 -1 8 5 4 7 24 14 44 15 20 2 34 6 32 10
-2 4 0 9 6 13 5 3 10 0 10 -7 0 -10 2 -10 9 1 5 7 13 11 19 7 6 -3 12 -2 14 3
3 8 47 20 86 23 6 1 12 5 12 9 0 4 9 6 20 4 11 -2 22 1 26 7 4 6 10 5 15 -3 5
-8 9 -9 9 -3 0 9 27 14 105 18 17 0 33 6 37 11 5 7 8 7 8 0 0 -5 11 -10 24
-10 13 0 22 4 18 9 -3 5 2 7 11 3 10 -3 17 -2 17 4 0 6 5 7 11 3 6 -3 35 -7
65 -8z"/>
<path d="M1410 2960 c0 -7 -6 -10 -12 -8 -16 6 -52 -38 -43 -52 3 -5 2 -10 -3
-10 -10 0 -9 -30 1 -47 4 -6 1 -14 -5 -16 -10 -4 -9 -8 2 -16 8 -6 11 -11 5
-11 -11 0 -12 -130 -1 -148 3 -6 0 -13 -6 -15 -10 -4 -9 -6 1 -6 11 -1 11 -4
1 -16 -10 -12 -10 -15 1 -15 11 0 11 -2 -1 -10 -13 -9 -13 -11 0 -20 8 -5 11
-10 5 -10 -6 0 -10 -28 -10 -65 0 -36 4 -65 8 -65 5 0 5 -5 1 -11 -10 -16 -11
-149 -1 -149 5 0 5 -5 1 -11 -10 -16 -11 -149 -1 -149 5 0 5 -5 1 -11 -10 -17
-10 -149 0 -149 6 0 5 -5 -1 -11 -18 -18 10 -69 37 -69 6 0 8 -5 4 -11 -4 -8
0 -8 15 0 11 7 21 8 21 4 0 -4 13 -8 30 -9 16 -1 27 2 25 7 -3 4 8 4 25 -1 21
-6 30 -5 30 3 0 8 3 9 8 1 4 -6 17 -7 32 -3 14 4 21 7 16 8 -4 1 1 9 13 19 19
15 22 29 24 110 1 54 -2 94 -8 96 -6 3 -6 5 0 5 6 1 9 16 7 35 l-4 35 123 -1
c122 -2 160 -12 144 -38 -3 -5 -1 -10 4 -10 6 0 11 -6 11 -14 0 -7 7 -19 15
-26 9 -7 14 -19 11 -27 -3 -7 -1 -13 4 -13 6 0 10 -7 10 -15 0 -8 4 -15 9 -15
8 0 24 -37 22 -52 -1 -5 3 -8 8 -8 10 0 27 -39 23 -53 -1 -5 2 -6 7 -3 5 3 11
-1 15 -9 3 -8 13 -15 21 -15 9 0 13 -4 10 -10 -4 -7 3 -7 19 0 17 6 26 6 26 0
0 -12 22 -9 32 5 5 6 8 6 8 -2 0 -12 24 -12 36 0 4 3 14 3 23 -1 20 -9 42 -9
59 1 6 5 16 6 20 3 16 -9 6 31 -11 49 -10 9 -15 21 -12 26 4 5 1 9 -6 9 -7 0
-9 3 -6 6 4 4 -3 15 -14 25 -18 15 -25 32 -28 62 -1 5 -5 5 -11 2 -5 -3 -10 1
-10 9 0 9 -4 16 -10 16 -5 0 -10 7 -10 15 0 8 -4 15 -10 15 -5 0 -10 9 -10 20
0 11 -7 23 -16 27 -9 3 -14 13 -11 24 3 11 1 17 -4 13 -10 -6 -12 26 -3 50 3
9 11 16 18 16 6 0 17 9 24 21 8 12 19 18 28 15 8 -3 12 -1 9 4 -3 5 3 18 15
30 11 11 17 20 13 20 -3 0 1 8 9 18 15 17 25 39 26 56 0 5 8 13 17 18 13 8 14
13 4 24 -9 11 -8 15 4 20 9 3 13 12 11 19 -3 7 0 16 6 20 9 6 9 9 0 15 -9 6
-9 11 2 21 14 12 13 63 -1 55 -3 -2 -6 8 -7 22 -2 46 -9 70 -30 93 -10 12 -13
19 -6 15 6 -4 12 -2 12 3 0 6 -5 11 -11 11 -5 0 -7 5 -4 10 3 6 1 10 -6 10 -7
0 -10 3 -6 6 3 4 1 12 -6 19 -7 7 -21 23 -33 36 -32 36 -63 59 -79 59 -8 0
-15 3 -15 8 0 11 -51 32 -77 32 -13 0 -23 4 -23 9 0 4 -8 8 -17 8 -45 0 -64 4
-59 11 2 4 -8 8 -24 7 -15 0 -26 -3 -23 -7 2 -5 -1 -8 -6 -8 -6 0 -11 4 -11 8
0 4 -9 8 -20 8 -11 0 -20 -4 -20 -9 0 -4 -6 -5 -12 -1 -19 12 -48 12 -48 0 0
-7 -3 -7 -8 -1 -9 12 -44 16 -36 4 3 -5 0 -9 -5 -9 -6 0 -11 4 -11 8 0 4 -9 8
-20 8 -11 0 -20 -4 -20 -9 0 -4 -6 -5 -12 -1 -19 12 -48 12 -48 0 0 -7 -3 -7
-8 -1 -9 12 -44 16 -36 4 3 -5 0 -9 -5 -9 -6 0 -11 4 -11 8 0 4 -9 8 -20 8
-11 0 -20 -4 -20 -9 0 -4 -6 -5 -12 -1 -18 11 -48 12 -48 2 0 -5 -9 -4 -20 2
-14 8 -20 8 -20 0z m350 -212 c0 7 5 10 11 7 16 -11 80 -12 86 -2 3 5 9 3 14
-4 7 -11 9 -11 9 -1 0 10 5 10 20 2 15 -8 20 -8 20 2 0 8 3 9 8 3 4 -6 14 -10
22 -10 8 0 23 -8 33 -19 9 -10 17 -15 17 -10 0 5 6 0 12 -11 7 -11 12 -22 12
-25 0 -3 6 -11 14 -19 7 -8 11 -22 9 -32 -3 -11 0 -19 6 -19 8 0 7 -4 -1 -12
-8 -8 -9 -15 -1 -25 7 -7 7 -13 2 -13 -5 0 -8 -15 -7 -32 1 -18 -1 -37 -4 -43
-4 -5 -7 -12 -7 -15 -3 -22 -18 -49 -25 -45 -5 3 -14 -4 -21 -16 -9 -17 -13
-19 -20 -8 -7 11 -9 11 -9 1 0 -7 -4 -10 -10 -7 -5 3 -10 0 -11 -7 0 -10 -2
-10 -6 0 -2 6 -9 12 -14 12 -6 0 -7 -5 -3 -11 4 -7 1 -10 -7 -7 -8 3 -24 1
-36 -3 -13 -5 -23 -5 -23 -1 0 4 -13 7 -30 8 -16 1 -27 -2 -25 -6 3 -4 -11 -4
-29 0 -22 5 -39 3 -45 -3 -8 -8 -11 -7 -11 1 0 10 -5 10 -20 2 -14 -8 -20 -8
-20 0 0 6 -6 10 -12 9 -32 -4 -36 1 -28 35 5 22 3 39 -3 45 -7 7 -7 11 -1 11
11 0 11 40 0 58 -4 7 -4 12 1 12 10 0 9 62 -1 78 -4 7 -3 12 1 12 10 0 10 41
-1 58 -4 7 -3 12 2 12 6 0 8 9 5 20 -5 19 -1 20 47 17 28 -1 54 1 57 6 3 5 9
3 14 -4 7 -11 9 -11 9 -1z"/>
<path d="M2670 2958 c0 -4 -7 -8 -15 -8 -8 0 -15 -7 -15 -15 0 -9 -7 -18 -15
-21 -11 -4 -12 -11 -5 -24 5 -9 6 -20 3 -24 -12 -12 -12 -36 0 -36 8 0 8 -3 2
-8 -14 -10 -17 -32 -5 -32 6 0 6 -10 -1 -27 -7 -19 -6 -28 2 -34 7 -4 8 -12 3
-20 -13 -21 -13 -39 -1 -39 8 0 8 -3 2 -8 -14 -10 -17 -32 -5 -32 6 0 6 -10
-1 -27 -7 -19 -6 -28 2 -34 7 -4 8 -12 3 -20 -13 -21 -13 -39 -1 -39 8 0 8 -3
2 -8 -14 -10 -17 -32 -5 -32 7 0 7 -6 0 -20 -7 -13 -7 -20 -1 -20 7 0 7 -9 0
-27 -7 -19 -7 -29 0 -31 8 -3 8 -10 0 -24 -8 -16 -8 -19 1 -13 9 6 10 3 3 -10
-6 -10 -7 -32 -3 -51 4 -19 4 -32 0 -29 -4 2 -7 -9 -6 -25 1 -17 4 -30 8 -30
4 0 3 -12 -3 -27 -7 -19 -7 -29 0 -31 8 -3 8 -10 0 -24 -8 -16 -8 -19 1 -13 9
6 10 3 3 -10 -6 -10 -7 -32 -3 -51 4 -19 4 -32 0 -29 -4 2 -7 -9 -6 -25 1 -17
4 -30 8 -30 4 0 3 -12 -2 -26 -7 -16 -7 -23 0 -19 6 3 10 1 10 -5 0 -6 7 -18
15 -26 8 -9 15 -12 15 -8 0 5 5 3 12 -4 8 -8 15 -9 25 -1 9 9 13 8 13 0 0 -9
5 -9 20 -1 11 6 20 7 20 2 0 -5 7 -9 15 -9 8 0 15 5 15 11 0 6 4 5 9 -3 8 -12
13 -12 36 3 18 12 25 13 20 5 -5 -8 3 -3 16 11 25 26 32 59 14 72 -7 5 -6 8 0
8 6 0 11 9 11 20 0 11 -4 20 -9 20 -6 0 -6 5 -1 13 11 15 11 38 1 55 -5 6 -4
12 2 12 7 0 7 8 1 25 -6 16 -6 25 1 25 6 0 6 7 -1 19 -7 14 -7 22 0 26 8 5 7
11 -1 21 -9 11 -9 14 0 14 8 0 9 5 1 19 -7 14 -7 22 0 26 8 5 7 11 -1 21 -9
11 -9 14 0 14 8 0 9 5 1 19 -7 14 -7 22 0 26 8 5 7 11 -1 21 -9 11 -9 14 0 14
8 0 9 5 1 19 -5 11 -6 22 -2 25 10 6 9 36 -2 54 -4 7 -2 12 4 12 8 0 7 6 -1
21 -6 13 -7 19 -1 15 6 -3 12 -1 14 5 2 7 13 9 27 4 13 -4 20 -12 17 -20 -3
-8 3 -17 15 -20 10 -4 19 -12 19 -18 0 -7 9 -19 19 -27 11 -7 18 -17 16 -21
-3 -4 2 -9 10 -13 8 -3 15 -12 15 -20 0 -7 7 -17 16 -20 8 -3 13 -10 10 -15
-3 -5 1 -12 10 -15 8 -3 12 -10 9 -16 -3 -5 1 -10 10 -10 11 0 15 -5 11 -16
-3 -8 -2 -13 2 -10 4 2 19 -12 32 -32 14 -20 32 -44 41 -52 8 -8 18 -23 22
-32 3 -10 11 -18 17 -18 6 0 9 -4 6 -8 -3 -5 4 -15 15 -22 10 -8 19 -21 19
-30 0 -8 9 -21 20 -28 11 -7 20 -18 20 -25 0 -7 9 -19 20 -27 11 -8 20 -20 20
-27 0 -7 4 -13 8 -13 5 0 15 -12 23 -27 15 -30 49 -68 49 -55 0 4 4 3 8 -3 15
-21 48 -32 70 -24 12 5 22 5 22 1 0 -4 13 -7 30 -8 16 -1 28 2 25 5 -2 4 8 6
22 5 27 -1 55 20 66 49 3 9 2 17 -4 17 -6 0 -7 5 -3 12 10 16 11 108 1 108 -5
0 -5 5 -1 12 10 16 11 68 1 68 -5 0 -5 5 -1 12 10 16 11 108 1 108 -5 0 -5 5
-1 12 10 16 11 108 1 108 -5 0 -5 5 -2 11 9 14 10 394 1 408 -4 6 -3 11 2 11
9 0 7 64 -3 80 -3 6 -2 10 3 10 17 0 1 39 -19 45 -10 4 -19 13 -19 21 0 8 -4
14 -10 14 -5 0 -10 -5 -10 -11 0 -5 -6 -7 -12 -3 -19 12 -48 12 -48 0 0 -7 -3
-7 -8 -1 -9 12 -44 16 -36 4 3 -5 0 -9 -5 -9 -6 0 -11 4 -11 9 0 6 -12 6 -30
0 -16 -6 -27 -15 -24 -20 3 -5 -2 -9 -11 -9 -9 0 -13 -4 -10 -10 3 -5 1 -10
-5 -10 -8 0 -8 -6 0 -20 6 -11 7 -20 2 -20 -9 0 -8 -53 3 -69 3 -6 3 -11 -2
-11 -4 0 -8 -18 -8 -40 0 -22 4 -40 8 -40 5 0 5 -5 1 -11 -9 -15 -9 -273 0
-288 4 -6 3 -11 -3 -11 -7 0 -7 -8 -1 -25 7 -18 6 -25 -3 -25 -8 0 -7 -4 3
-10 12 -7 12 -10 1 -10 -7 0 -11 -6 -8 -14 3 -8 -2 -16 -14 -19 -10 -3 -17 -1
-13 4 3 5 -2 9 -11 9 -9 0 -13 5 -10 10 3 6 0 10 -9 10 -8 0 -17 13 -21 30 -4
18 -13 30 -23 31 -12 0 -13 2 -4 6 10 4 7 9 -10 17 -12 7 -22 18 -20 24 1 7
-5 12 -14 12 -10 0 -14 6 -11 14 3 7 -4 23 -16 33 -31 28 -57 62 -57 73 0 6
-4 10 -10 10 -5 0 -10 6 -10 14 0 8 -7 16 -15 20 -8 3 -15 12 -15 21 0 8 -7
15 -15 15 -8 0 -15 7 -15 16 0 9 -13 30 -30 45 -16 16 -30 31 -30 34 0 3 0 9
0 14 0 5 -9 12 -19 16 -11 3 -18 12 -15 19 3 7 -2 16 -10 19 -9 4 -16 11 -16
17 0 6 -10 22 -22 35 -39 42 -47 53 -41 59 4 3 -1 6 -10 6 -8 0 -19 10 -22 21
-5 15 -9 18 -15 9 -5 -8 -10 -9 -14 -1 -5 7 -15 7 -31 1 -14 -5 -25 -6 -25 -1
0 9 -31 8 -48 -3 -6 -4 -12 -3 -12 1 0 5 -9 9 -20 9 -11 0 -20 -4 -20 -8z"/>
<path d="M1110 1121 c0 -6 4 -13 10 -16 6 -3 7 1 4 9 -7 18 -14 21 -14 7z"/>
</g>
</svg>
